<?xml version="1.0" encoding="iso-8859-1"?>
<!-- Generator: Adobe Illustrator 19.0.0, SVG Export Plug-In . SVG Version: 6.00 Build 0)  -->
<svg version="1.1" id="Layer_1" xmlns="http://www.w3.org/2000/svg" xmlns:xlink="http://www.w3.org/1999/xlink" x="0px" y="0px"
	 viewBox="0 0 512 512" style="enable-background:new 0 0 512 512;" xml:space="preserve">
<circle style="fill:#273B7A;" cx="256" cy="256" r="256"/>
<path style="fill:#121149;" d="M142.222,327.111l177.011,177.011c90.922-23.102,162.411-94.86,185.142-185.928l-126.84-126.84
	l11.109,25.331l-96.442-96.442L142.222,327.111z"/>
<polygon style="fill:#D6D6D6;" points="356.848,170.667 227.556,170.667 227.556,398.222 398.222,398.222 398.222,212.04 "/>
<polygon style="fill:#AFAFAF;" points="398.222,212.04 356.848,170.667 313.465,170.667 313.465,398.222 398.222,398.222 "/>
<polygon style="fill:#E2E2E2;" points="356.848,212.04 398.222,212.04 356.848,170.667 "/>
<polygon style="fill:#FFFFFF;" points="271.515,99.556 142.222,99.556 142.222,327.111 312.889,327.111 312.889,140.929 "/>
<polygon style="fill:#E2E2E2;" points="312.889,140.929 271.515,99.556 219.798,99.556 219.798,327.111 312.889,327.111 "/>
<polygon style="fill:#AFAFAF;" points="271.515,140.929 312.889,140.929 271.515,99.556 "/>
<g>
	<rect x="170.667" y="168.943" style="fill:#121149;" width="113.778" height="3.448"/>
	<rect x="170.667" y="197.387" style="fill:#121149;" width="113.778" height="3.448"/>
	<rect x="170.667" y="225.832" style="fill:#121149;" width="113.778" height="3.448"/>
	<rect x="170.667" y="254.276" style="fill:#121149;" width="113.778" height="3.448"/>
</g>
<g>
</g>
<g>
</g>
<g>
</g>
<g>
</g>
<g>
</g>
<g>
</g>
<g>
</g>
<g>
</g>
<g>
</g>
<g>
</g>
<g>
</g>
<g>
</g>
<g>
</g>
<g>
</g>
<g>
</g>
</svg>
